<?xml version="1.0" standalone="no"?>
<!DOCTYPE svg PUBLIC "-//W3C//DTD SVG 1.1//EN" "http://www.w3.org/Graphics/SVG/1.1/DTD/svg11.dtd" >
<svg xmlns="http://www.w3.org/2000/svg">
<metadata></metadata>
<defs>
<font id="modernica_boldbold" horiz-adv-x="1049" >
<font-face units-per-em="2048" ascent="1621" descent="-427" />
<missing-glyph horiz-adv-x="426" />
<glyph horiz-adv-x="0" />
<glyph horiz-adv-x="682" />
<glyph unicode=" "  horiz-adv-x="426" />
<glyph unicode="&#x09;" horiz-adv-x="426" />
<glyph unicode="&#xa0;" horiz-adv-x="426" />
<glyph unicode="!" horiz-adv-x="409" d="M85 111q0 59 33 89t87 30t86.5 -30t32.5 -89q0 -58 -33 -89t-86 -31t-86.5 31t-33.5 89zM99 1246h213q0 -163 -8.5 -385t-17.5 -363l-8 -140h-145q-34 522 -34 888z" />
<glyph unicode="&#x22;" horiz-adv-x="682" d="M85 887v359h193l-31 -359h-162zM406 887v359h191l-29 -359h-162z" />
<glyph unicode="#" d="M85 210l24 176h138l35 169h-149l22 175h161l34 175h188l-35 -175h146l34 175h187l-34 -175h128l-22 -175h-140l-34 -169h150l-24 -176h-160l-34 -176h-188l34 176h-145l-34 -176h-188l34 176h-128zM435 386h145l33 169h-145z" />
<glyph unicode="$" horiz-adv-x="1114" d="M119 338q65 37 193 46q19 -217 251 -217q239 0 239 166q0 47 -23 81.5t-62.5 55.5t-90 37t-106.5 31t-112.5 32t-107 44t-90 64t-62.5 96.5t-23 135.5q0 132 83 220t249 109v178h205v-178q83 -12 145 -45.5t97 -80.5t52 -100t17 -112q-8 -5 -23 -12t-67 -19t-110 -12 q0 209 -227 209q-225 0 -225 -171q0 -53 29 -91.5t76.5 -59.5t108 -40t123.5 -33.5t123.5 -40.5t108 -59.5t76.5 -92.5t29 -138q0 -141 -85.5 -227.5t-247.5 -106.5v-178h-205v178q-160 21 -244.5 109t-93.5 222z" />
<glyph unicode="%" horiz-adv-x="1723" d="M137 870q0 350 303 350q159 0 230.5 -87.5t71.5 -262.5q0 -174 -71.5 -261.5t-230.5 -87.5q-303 0 -303 349zM312 870q0 -191 128 -191t128 191q0 193 -128 193t-128 -193zM350 0l887 1246h197l-888 -1246h-196zM981 341q0 350 304 350q159 0 230.5 -87.5t71.5 -262.5 q0 -174 -71.5 -262t-230.5 -88q-304 0 -304 350zM1157 341q0 -191 128 -191t128 191q0 193 -128 193t-128 -193z" />
<glyph unicode="&#x26;" horiz-adv-x="1271" d="M85 299q0 65 20.5 119.5t59.5 96.5t81 72.5t100 62.5q-110 160 -110 311q0 142 87.5 222t261.5 80q166 0 249.5 -75t83.5 -202q0 -58 -17 -109.5t-43.5 -89.5t-68 -74.5t-79.5 -61t-89 -52.5q104 -108 289 -254q59 117 59 372q111 -20 183 -68q0 -261 -96 -420l198 -152 q-8 -7 -22.5 -18.5t-64 -34.5t-104.5 -33l-129 103q-148 -111 -405 -111q-221 0 -332.5 73.5t-111.5 242.5zM295 324q0 -153 248 -153q147 0 240 44q-203 164 -326 297q-78 -43 -120 -87t-42 -101zM435 939q0 -95 75 -207q100 51 153.5 102t53.5 122q0 55 -33 87t-104 32 q-145 0 -145 -136z" />
<glyph unicode="'" horiz-adv-x="363" d="M85 887v359h193l-31 -359h-162z" />
<glyph unicode="(" horiz-adv-x="793" d="M119 478q0 103 14.5 197t39.5 166.5t57 137t67 111.5t70.5 86t67.5 64t57 42t40 24l14 8l162 -68q-8 -4 -21.5 -11t-52.5 -37t-74.5 -66.5t-78.5 -101t-74 -139t-52.5 -183t-21.5 -230.5q0 -96 13 -183.5t34.5 -154.5t49.5 -126.5t59 -102t62.5 -77.5t59.5 -57.5 t49.5 -38t34.5 -22.5l13 -6l-162 -68q-9 4 -24.5 12.5t-59.5 41.5t-84.5 73.5t-90 111t-84.5 151.5t-59.5 198t-24.5 248z" />
<glyph unicode=")" horiz-adv-x="827" d="M119 -290q8 4 21.5 11t52.5 37t74.5 66.5t79 101t74.5 139t52.5 183t21.5 230.5t-20.5 230t-54 183.5t-73.5 138.5t-80 102t-73.5 66t-53.5 38l-21 10l163 68q9 -4 24.5 -12.5t59.5 -41.5t84.5 -73.5t89.5 -111t84.5 -151.5t59.5 -198t24 -248t-23.5 -247.5t-61 -198.5 t-83 -151t-91 -112t-83 -73t-60.5 -42l-24 -12z" />
<glyph unicode="*" horiz-adv-x="708" d="M77 959v147l157 -7l-94 145l126 72l89 -178l90 178l127 -72l-98 -145l157 7v-147l-157 7l98 -145l-127 -72l-90 179l-89 -179l-126 72l94 145z" />
<glyph unicode="+" horiz-adv-x="1020" d="M171 422v169h252v271h174v-271h253v-169h-253v-272h-174v272h-252z" />
<glyph unicode="," horiz-adv-x="372" d="M60 102q0 59 32.5 89.5t83.5 30.5q66 0 101 -44.5t35 -126.5q0 -107 -60.5 -182.5t-140.5 -104.5l-38 69q63 27 106.5 78.5t47.5 110.5q-31 -31 -73 -31q-36 0 -65 28.5t-29 82.5z" />
<glyph unicode="-" horiz-adv-x="733" d="M111 401v176h512v-176h-512z" />
<glyph unicode="." horiz-adv-x="358" d="M60 111q0 59 32.5 89t86.5 30t87 -30t33 -89q0 -58 -33.5 -89t-86.5 -31t-86 31t-33 89z" />
<glyph unicode="/" horiz-adv-x="972" d="M85 -307l598 1715h204l-597 -1715h-205z" />
<glyph unicode="0" horiz-adv-x="1126" d="M111 623q0 318 109 474.5t343 156.5t343 -156.5t109 -474.5q0 -632 -452 -632t-452 632zM324 623q0 -222 59.5 -324.5t179.5 -102.5q121 0 180 102t59 325q0 158 -27.5 253t-78.5 134.5t-133 39.5q-81 0 -132.5 -39.5t-79 -134.5t-27.5 -253z" />
<glyph unicode="1" horiz-adv-x="793" d="M9 1041q120 32 236.5 88.5t186.5 116.5h182v-1246h-213v1004q-51 -38 -143 -78.5t-202 -67.5q-5 7 -13 21t-21 61.5t-13 100.5z" />
<glyph unicode="2" horiz-adv-x="1058" d="M111 927q0 66 24 123.5t72.5 104t131 73t190.5 26.5q211 0 314.5 -97.5t103.5 -280.5q0 -86 -32.5 -159.5t-85 -125t-115.5 -95.5t-126 -78.5t-115.5 -66.5t-85 -67.5t-32.5 -73.5h580v-210h-798v137q0 89 33 161t85.5 119t116 87t127.5 75t116.5 72t85.5 89.5t33 117.5 q0 93 -51.5 142.5t-153.5 49.5q-208 0 -208 -157q0 -40 11.5 -73.5t23.5 -47.5l11 -13h-208q-5 6 -13 17t-21.5 54.5t-13.5 96.5z" />
<glyph unicode="3" horiz-adv-x="1037" d="M111 346q9 5 26.5 12t73 19t113.5 12q0 -103 47 -152t146 -49q196 0 196 167q0 77 -51.5 121.5t-140.5 44.5h-81v179h72q90 0 141.5 45.5t51.5 138.5q0 75 -47 120.5t-141 45.5q-95 0 -141.5 -40t-46.5 -105q0 -30 8.5 -56t17.5 -37l9 -10h-210q-4 5 -10.5 15t-17 47.5 t-10.5 82.5q0 62 22.5 115.5t68.5 97.5t125.5 69t184.5 25q202 0 301.5 -93.5t99.5 -238.5q0 -141 -71 -216.5t-176 -82.5v-9q50 -4 94.5 -22t81.5 -50t58.5 -85t21.5 -119q0 -165 -110.5 -256t-304.5 -91q-197 0 -299 91.5t-102 263.5z" />
<glyph unicode="4" horiz-adv-x="1058" d="M43 500l503 746h290v-717h179v-196h-179v-333h-213v333h-524zM278 529h345v521z" />
<glyph unicode="5" horiz-adv-x="1083" d="M111 338q10 5 28.5 12.5t74 20.5t110.5 13q25 -191 219 -191q102 0 159 51.5t57 156.5t-53.5 163.5t-159.5 58.5q-58 0 -107 -18t-69 -36l-20 -18l-191 34l29 661h725v-205h-529l-12 -290q8 6 23 14.5t69 22.5t116 14q190 0 291.5 -107t101.5 -285q0 -109 -34 -191 t-95 -131t-139 -73t-171 -24q-192 0 -301 90t-122 257z" />
<glyph unicode="6" horiz-adv-x="1088" d="M111 589q0 177 36 308t102 207.5t149.5 113t186.5 36.5q101 0 175.5 -27.5t114.5 -75.5t58.5 -102.5t18.5 -118.5q-8 -6 -22.5 -14.5t-67.5 -22.5t-114 -14q0 74 -42 122.5t-126 48.5q-48 0 -88.5 -19.5t-76.5 -63t-59 -124.5t-30 -193q117 80 280 80q182 0 277 -96 t95 -250q0 -184 -110 -288.5t-305 -104.5q-452 0 -452 598zM329 461q16 -146 77 -205.5t162 -59.5q94 0 145.5 45.5t51.5 133.5q0 81 -47.5 130.5t-145.5 49.5q-140 0 -243 -94z" />
<glyph unicode="7" horiz-adv-x="892" d="M26 1038v208h807l34 -179q-13 -14 -36.5 -41.5t-88.5 -126t-122.5 -212t-125 -299.5t-110.5 -388h-213q36 181 92 354t111 291.5t104.5 211t79.5 137.5l31 44h-563z" />
<glyph unicode="8" horiz-adv-x="1075" d="M111 321q0 74 28 135t68.5 95.5t80.5 58t68 31.5l28 8q-9 2 -24.5 7.5t-55.5 28t-70 52.5t-55 85t-25 122q0 151 97 230.5t287 79.5t287 -79.5t97 -230.5q0 -49 -12.5 -91.5t-33 -71.5t-45.5 -53t-49.5 -38t-45 -24t-32.5 -14l-13 -3q11 -3 29.5 -8.5t65.5 -31t83 -58.5 t65.5 -94.5t29.5 -135.5q0 -161 -108 -245.5t-318 -84.5t-318.5 84.5t-108.5 245.5zM324 355q0 -162 214 -162q213 0 213 162q0 43 -22 79t-53.5 57t-62.5 35t-53 20l-22 5l-12 -3t-30 -9t-42.5 -16.5t-45 -26t-42.5 -35.5t-30 -47t-12 -59zM367 930q0 -41 17.5 -76 t42.5 -54.5t50.5 -33.5t42.5 -19l18 -5q7 2 18.5 5.5t40.5 18.5t51.5 34t41 54t18.5 76q0 61 -42.5 94.5t-127.5 33.5q-83 0 -127 -35t-44 -93z" />
<glyph unicode="9" horiz-adv-x="1088" d="M111 850q0 187 110.5 295.5t304.5 108.5q221 0 336.5 -139.5t115.5 -448.5q0 -182 -35 -314.5t-101 -210.5t-152 -114t-195 -36q-96 0 -167.5 27t-111.5 73.5t-59.5 101.5t-19.5 119q8 6 22.5 15t67.5 24.5t114 15.5q0 -171 168 -171q109 0 172.5 82.5t79.5 281.5 q-118 -77 -275 -77q-187 0 -281 97.5t-94 269.5zM324 853q0 -196 193 -196q150 0 246 92q-11 165 -72.5 233t-169.5 68q-95 0 -146 -51.5t-51 -145.5z" />
<glyph unicode=":" horiz-adv-x="409" d="M94 111q0 59 32.5 89t86.5 30t87 -30t33 -89q0 -58 -33.5 -89t-86.5 -31t-86 31t-33 89zM94 713q0 58 33 89t86 31t86.5 -31t33.5 -89q0 -59 -33 -89t-87 -30t-86.5 30t-32.5 89z" />
<glyph unicode=";" horiz-adv-x="423" d="M94 102q0 59 32.5 89.5t83.5 30.5q66 0 101 -44.5t35 -126.5q0 -107 -60.5 -182.5t-140.5 -104.5l-37 69q63 27 106 78.5t47 110.5q-31 -31 -73 -31q-36 0 -65 28.5t-29 82.5zM94 713q0 58 33 89t86 31t86.5 -31t33.5 -89q0 -59 -33 -89t-87 -30t-86.5 30t-32.5 89z" />
<glyph unicode="&#x3c;" horiz-adv-x="921" d="M119 367v154l683 329v-184l-495 -222l495 -205v-183z" />
<glyph unicode="=" d="M171 273v171h708v-171h-708zM171 568v171h708v-171h-708z" />
<glyph unicode="&#x3e;" horiz-adv-x="921" d="M119 56v183l495 205l-495 222v184l683 -329v-154z" />
<glyph unicode="?" horiz-adv-x="785" d="M51 998q0 120 84.5 192.5t245.5 72.5q167 0 251.5 -74t84.5 -216q0 -61 -16.5 -111.5t-43.5 -85t-59 -64t-64 -56.5t-59 -55t-43.5 -66t-16.5 -83v-94h-173v86q0 63 16 115t41 87t55.5 64.5t61.5 55t56 52t41 61.5t16 77q0 69 -40 107t-108 38q-67 0 -104.5 -35.5 t-37.5 -96.5q0 -30 8.5 -57t16.5 -38l9 -12h-188q-4 5 -9.5 14.5t-15 44.5t-9.5 77zM210 111q0 59 32.5 89t86.5 30t87 -30t33 -89q0 -58 -33.5 -89t-86.5 -31t-86 31t-33 89z" />
<glyph unicode="@" horiz-adv-x="1873" d="M154 432q0 198 60 352t168 252.5t255.5 149.5t326.5 51q358 0 557 -192t199 -545q0 -517 -329 -517q-156 0 -224 116q-120 -116 -283 -116q-76 0 -141.5 26.5t-118 78.5t-82.5 139t-30 200q0 117 31 207t86 144t124.5 81.5t151.5 27.5q154 0 257 -95l24 78l154 -20v-555 q0 -81 20 -113t67 -32q41 0 67 26.5t42.5 106t16.5 217.5q0 298 -151 443.5t-438 145.5q-142 0 -259 -41t-203 -120.5t-133.5 -206t-47.5 -289.5q0 -132 31 -236t83 -171t124.5 -111t150.5 -62.5t166 -18.5q84 0 150.5 14t91.5 28l25 14q0 -44 -4.5 -81.5t-8.5 -53.5l-5 -15 q-3 -2 -8 -5.5t-26.5 -12.5t-48 -15.5t-73.5 -12t-102 -5.5q-115 0 -217 24.5t-194 80.5t-158 140t-105 211.5t-39 287.5zM717 418q0 -123 64.5 -182.5t165.5 -59.5q112 0 188 66v381q-79 60 -183 60q-45 0 -86 -15.5t-75 -46t-54 -83t-20 -120.5z" />
<glyph unicode="A" horiz-adv-x="1228" d="M9 0q124 353 243 664.5t176 446.5l58 135h256q23 -51 64 -148t166 -421t248 -677h-222q-65 188 -128 364h-510q-123 -344 -130 -364h-221zM432 560h365q-50 136 -96 255.5t-67 170.5l-20 52q-69 -174 -182 -478z" />
<glyph unicode="B" horiz-adv-x="1131" d="M111 0v1246h491q194 0 293.5 -85t99.5 -251q0 -51 -12.5 -93.5t-30.5 -68t-41.5 -45t-41 -28.5t-33.5 -13q115 -25 184 -103.5t69 -217.5q0 -341 -381 -341h-597zM324 213h359q98 0 145.5 35.5t47.5 115.5q0 167 -210 167h-342v-318zM324 724h256q105 0 153.5 37.5 t48.5 114.5q0 78 -50 117.5t-160 39.5h-248v-309z" />
<glyph unicode="C" horiz-adv-x="1245" d="M68 623q0 198 83 342.5t224.5 216.5t324.5 72q354 0 503 -216q-19 -53 -49 -100t-50 -68l-20 -20q-28 40 -54.5 68t-72 60.5t-110.5 50t-147 17.5q-87 0 -162.5 -27.5t-132.5 -79.5t-90 -133t-33 -183q0 -109 32 -191.5t89.5 -132t132 -74t164.5 -24.5q275 0 401 197 q8 -7 21.5 -20t45.5 -58.5t52 -97.5q-15 -24 -35 -47.5t-64.5 -59t-97.5 -61t-137 -44.5t-181 -19q-140 0 -256.5 41t-201.5 119.5t-132 199t-47 272.5z" />
<glyph unicode="D" horiz-adv-x="1245" d="M111 0v1246h375q339 0 515.5 -154t176.5 -469t-176.5 -469t-515.5 -154h-375zM324 213h197q220 0 330 100.5t110 309.5t-110 309.5t-330 100.5h-197v-820z" />
<glyph unicode="E" horiz-adv-x="1012" d="M111 0v1246h819v-213h-606v-330h521v-210h-521v-280h632v-213h-845z" />
<glyph unicode="F" horiz-adv-x="952" d="M111 0v1246h836v-213h-623v-330h529v-210h-529v-493h-213z" />
<glyph unicode="G" horiz-adv-x="1285" d="M68 623q0 151 48 271t134 198.5t204 120t259 41.5q325 0 504 -162q-19 -55 -46 -104t-45 -70l-17 -22q-33 31 -62.5 52t-77 45t-113.5 36t-148 12q-190 0 -308 -107.5t-118 -313.5q0 -214 116 -323t327 -109q170 0 304 65v247h-321v191h517v-537q-6 -7 -18.5 -18t-58 -39 t-98.5 -49.5t-141.5 -39t-186.5 -17.5q-142 0 -260.5 39.5t-207 116t-137.5 198.5t-49 278z" />
<glyph unicode="H" horiz-adv-x="1339" d="M111 0v1246h213v-541h691v541h214v-1246h-214v492h-691v-492h-213z" />
<glyph unicode="I" horiz-adv-x="435" d="M111 0v1246h213v-1246h-213z" />
<glyph unicode="J" horiz-adv-x="1046" d="M26 406q8 5 24 12.5t68 20.5t109 13q0 -140 58.5 -199.5t183.5 -59.5q134 0 197.5 64.5t63.5 225.5v763h214v-789q0 -466 -483 -466q-435 0 -435 415z" />
<glyph unicode="K" horiz-adv-x="1216" d="M111 0v1246h213v-662q222 62 366.5 220t214.5 442h213q-112 -419 -335 -630q214 -274 425 -616h-252q-156 243 -345 488q-128 -72 -287 -118v-370h-213z" />
<glyph unicode="L" horiz-adv-x="904" d="M111 0v1246h213v-1033h572v-213h-785z" />
<glyph unicode="M" horiz-adv-x="1536" d="M111 0v1246h167l490 -580l492 580h165v-1246h-213v867l-435 -509h-18l-435 511v-869h-213z" />
<glyph unicode="N" horiz-adv-x="1314" d="M111 0v1246h171l708 -865v865h213v-1246h-170l-709 867v-867h-213z" />
<glyph unicode="O" horiz-adv-x="1365" d="M68 623q0 153 45.5 273.5t128 198t194.5 118.5t247 41q181 0 318 -70t216.5 -214t79.5 -347q0 -151 -45.5 -271.5t-127.5 -199t-194 -120t-247 -41.5t-247.5 41.5t-194.5 120t-127.5 199t-45.5 271.5zM282 623q0 -205 109 -311.5t292 -106.5q184 0 292.5 106t108.5 312 q0 205 -109 312.5t-292 107.5q-182 0 -291.5 -107.5t-109.5 -312.5z" />
<glyph unicode="P" horiz-adv-x="1075" d="M111 0v1246h427q236 0 361 -109.5t125 -334.5t-125 -334.5t-361 -109.5h-214v-358h-213zM324 572h231q126 0 191 60t65 170t-65 170.5t-191 60.5h-231v-461z" />
<glyph unicode="Q" horiz-adv-x="1365" d="M68 623q0 153 45.5 273.5t128 198t194.5 118.5t247 41q181 0 318 -70t216.5 -214t79.5 -347q0 -200 -77 -342t-216 -216q73 -133 187 -275q-3 -3 -10 -8.5t-30 -19.5t-48.5 -24.5t-66.5 -19t-84 -8.5q-82 128 -153 290q-68 -9 -116 -9q-135 0 -247.5 41.5t-194.5 120 t-127.5 199t-45.5 271.5zM282 623q0 -205 109 -311.5t292 -106.5q184 0 292.5 106t108.5 312q0 205 -109 312.5t-292 107.5q-182 0 -291.5 -107.5t-109.5 -312.5z" />
<glyph unicode="R" horiz-adv-x="1186" d="M111 0v1246h469q243 0 369 -102t126 -325q0 -263 -189 -363q128 -224 240 -456h-247q-81 190 -195 398q-53 -5 -104 -5h-256v-393h-213zM324 606h290q122 0 185 54t63 159q0 111 -62 162.5t-186 51.5h-290v-427z" />
<glyph unicode="S" horiz-adv-x="1114" d="M68 350q77 34 205 51q7 -121 78 -175t221 -54q143 0 206 41.5t63 127.5q0 45 -26 77t-69.5 50.5t-100.5 32t-119.5 26t-125 27.5t-119.5 41.5t-100.5 63.5t-69.5 97.5t-26 139.5q0 167 117.5 262.5t365.5 95.5q127 0 219 -24t143.5 -67t75 -95t23.5 -116 q0 -45 -6.5 -80.5t-13.5 -47.5l-7 -13h-208q22 30 22 90q0 167 -253 167q-268 0 -268 -175q0 -56 32.5 -94.5t85 -57.5t120 -35.5t138 -28t138 -35.5t120 -56.5t85 -93t32.5 -142.5q0 -359 -486 -359q-104 0 -186 17.5t-137 48.5t-92 77t-55 98.5t-22 117.5z" />
<glyph unicode="T" horiz-adv-x="1032" d="M5 1033v213h1016v-213h-401v-1033h-214v1033h-401z" />
<glyph unicode="U" horiz-adv-x="1297" d="M102 538v708h214v-678q0 -199 80.5 -281t252.5 -82t252 82t80 281v678h214v-708q0 -152 -35.5 -258t-107 -169.5t-170 -91.5t-233.5 -28t-233.5 28t-170.5 91t-107.5 169.5t-35.5 258.5z" />
<glyph unicode="V" horiz-adv-x="1160" d="M-34 1246h227q91 -277 188 -536t148 -380l51 -120q21 46 57 132t138.5 356.5t193.5 547.5h226q-115 -341 -237 -652.5t-186 -452.5l-64 -141h-256q-25 54 -69.5 154.5t-172.5 425.5t-244 666z" />
<glyph unicode="W" horiz-adv-x="1621" d="M-26 1246h222l296 -1036q106 491 208 1036h222q45 -243 97.5 -502t82.5 -396l30 -138q153 534 293 1036h222q-85 -296 -179 -607.5t-146 -474.5l-51 -164h-267q-101 418 -193 903q-40 -216 -87.5 -442t-75.5 -343l-28 -118h-270q-183 581 -376 1246z" />
<glyph unicode="X" horiz-adv-x="1126" d="M-9 0q176 287 413 625q-230 328 -413 621h236q77 -124 161 -250t130 -190l45 -64q162 225 338 504h234q-183 -293 -413 -621q237 -338 413 -625h-234q-78 126 -162.5 251.5t-130.5 188.5l-45 63q-162 -221 -336 -503h-236z" />
<glyph unicode="Y" horiz-adv-x="1117" d="M-34 1246h235q80 -159 169.5 -313t139.5 -228l50 -74q179 258 358 615h234q-108 -195 -229 -395.5t-189 -303.5l-67 -103v-444h-215v444q-242 364 -486 802z" />
<glyph unicode="Z" horiz-adv-x="1029" d="M22 188l703 845h-699v213h972l6 -196l-702 -837h705v-213h-976z" />
<glyph unicode="[" horiz-adv-x="699" d="M154 -304v1567h460v-205h-256v-1157h256v-205h-460z" />
<glyph unicode="\" horiz-adv-x="972" d="M85 1408h205l597 -1715h-204z" />
<glyph unicode="]" horiz-adv-x="699" d="M85 -99h256v1157h-256v205h461v-1567h-461v205z" />
<glyph unicode="^" horiz-adv-x="930" d="M119 870l231 393h230l231 -393h-183l-162 282l-162 -282h-185z" />
<glyph unicode="_" horiz-adv-x="819" d="M60 -17v176h699v-176h-699z" />
<glyph unicode="`" horiz-adv-x="742" d="M171 1280h230l171 -290h-188z" />
<glyph unicode="a" horiz-adv-x="930" d="M90 213q0 239 299 236h231v85q0 86 -37.5 126t-130.5 40q-153 0 -153 -106q0 -17 3.5 -32t6.5 -22l3 -6h-193q-17 38 -17 94q0 114 87.5 182.5t262.5 68.5q203 0 287.5 -78t84.5 -246v-555h-187l-11 99q-123 -108 -297 -108q-111 0 -175 56.5t-64 165.5zM282 230 q0 -82 102 -82q134 0 236 79v94h-219q-119 0 -119 -91z" />
<glyph unicode="b" horiz-adv-x="1029" d="M108 0v1246h204v-432q99 65 231 65q193 0 292.5 -111t99.5 -324q0 -228 -112 -340.5t-306 -112.5q-145 0 -246 81l-24 -72h-139zM312 242q72 -49 171 -49q122 0 184.5 57.5t62.5 184.5q0 123 -59.5 183.5t-170.5 60.5q-101 0 -188 -65v-372z" />
<glyph unicode="c" horiz-adv-x="918" d="M94 435q0 215 113.5 329.5t318.5 114.5q66 0 123.5 -11t93 -26.5t62 -31t37.5 -26.5l11 -11q-2 -13 -7 -34t-25.5 -71.5t-47.5 -82.5q-3 4 -10 10t-30 22.5t-49.5 29t-68 22.5t-86.5 10q-112 0 -171 -61.5t-59 -182.5q0 -129 63 -186.5t184 -57.5q71 0 130.5 21.5 t83.5 42.5l25 21q51 -73 82 -175l-11.5 -11.5t-37 -26.5t-65 -33.5t-96 -26.5t-128.5 -12q-206 0 -320.5 111.5t-114.5 332.5z" />
<glyph unicode="d" horiz-adv-x="1054" d="M94 432q0 217 105 332t270 115q148 0 248 -72v439h205v-1246h-180l-13 113q-108 -122 -280 -122q-167 0 -261 107.5t-94 333.5zM299 423q0 -239 204 -239q131 0 214 87v331q-79 72 -200 72q-218 0 -218 -251z" />
<glyph unicode="e" horiz-adv-x="981" d="M94 440q0 211 112.5 325t310.5 114q100 0 172.5 -26t112.5 -73t58.5 -103.5t18.5 -125.5q0 -44 -5.5 -81.5t-10.5 -53.5l-5 -15h-566q9 -122 74 -177t185 -55q50 0 96 9.5t75.5 22.5t51.5 26t32 23l10 9q42 -58 71 -169q-4 -4 -13 -10.5t-41 -24t-69 -30.5t-98 -23.5 t-128 -10.5q-216 0 -330 111.5t-114 337.5zM297 534h389l2 17q0 79 -38.5 121.5t-137.5 42.5q-183 0 -215 -181z" />
<glyph unicode="f" horiz-adv-x="580" d="M34 679v191h120v74q0 310 312 310q66 0 119 -11.5t73 -22.5l21 -12q0 -45 -8.5 -93.5t-16.5 -74.5l-9 -25q-6 4 -18 11t-51 18t-81 11q-74 0 -105.5 -32.5t-31.5 -95.5v-57h248v-191h-248v-679h-204v679h-120z" />
<glyph unicode="g" horiz-adv-x="844" d="M51 -82q0 133 113 203q-19 38 -19 80q0 76 56 130q-107 79 -107 241q0 141 86 224t243 83q93 0 164 -31q30 34 60.5 74t45.5 62l15 23q4 -2 10 -6.5t23.5 -19.5t33 -33t33 -48.5t28.5 -63.5q-49 -48 -128 -94q43 -71 43 -170q0 -140 -84.5 -221t-243.5 -81q-60 0 -104 10 q-15 -21 -15 -50q0 -34 25.5 -46.5t85.5 -12.5h145q143 0 205.5 -54.5t62.5 -164.5q0 -264 -401 -264q-194 0 -285 55t-91 175zM234 -48q0 -55 47.5 -79.5t158.5 -24.5q205 0 205 97q0 40 -26 59.5t-93 19.5h-120q-76 0 -130 17q-42 -36 -42 -89zM270 577q0 -144 153 -144 q154 0 154 144q0 67 -39 102.5t-115 35.5q-153 0 -153 -138z" />
<glyph unicode="h" horiz-adv-x="1006" d="M108 0v1246h204v-481q105 114 260 114q329 0 329 -333v-546h-205v457q0 217 -175 217q-71 0 -127 -40t-82 -98v-536h-204z" />
<glyph unicode="i" horiz-adv-x="418" d="M80 1135q0 119 128 119t128 -119q0 -120 -128 -120t-128 120zM108 0v870h204v-870h-204z" />
<glyph unicode="j" horiz-adv-x="477" d="M-43 -111q111 0 156.5 36.5t45.5 134.5v810h205v-856q0 -321 -333 -321q-3 2 -8 6.5t-18 21t-22.5 37t-17.5 55.5t-8 76zM131 1135q0 119 128 119t128 -119q0 -120 -128 -120t-128 120z" />
<glyph unicode="k" horiz-adv-x="926" d="M108 0v1246h204v-778q136 43 231.5 142.5t128.5 259.5h212q-41 -222 -213 -397l247 -473h-230l-181 346q-93 -58 -195 -88v-258h-204z" />
<glyph unicode="l" horiz-adv-x="486" d="M108 184v1062h204v-993q0 -35 15 -50t48 -15q21 0 41.5 4t30.5 8l10 5q21 -69 21 -183q-51 -31 -179 -31q-99 0 -145 43.5t-46 149.5z" />
<glyph unicode="m" horiz-adv-x="1544" d="M108 0v870h157l32 -131q108 140 275 140q97 0 168 -43t105 -117q110 160 290 160q143 0 223.5 -86t80.5 -247v-546h-205v452q0 110 -40.5 166t-130.5 56q-61 0 -111.5 -40.5t-75.5 -99.5v-534h-205v452q0 110 -40.5 166t-130.5 56q-61 0 -112 -40.5t-76 -99.5v-534h-204z " />
<glyph unicode="n" horiz-adv-x="1006" d="M108 0v870h157l34 -134q111 143 286 143q151 0 233.5 -85.5t82.5 -247.5v-546h-205v452q0 111 -42 166.5t-137 55.5q-67 0 -123 -42t-82 -100v-532h-204z" />
<glyph unicode="o" d="M94 435q0 217 114.5 330.5t317.5 113.5t316.5 -113.5t113.5 -330.5t-114 -330.5t-316 -113.5q-203 0 -317.5 113.5t-114.5 330.5zM299 435q0 -119 58 -183t169 -64q110 0 167.5 64t57.5 183q0 117 -58 182.5t-167 65.5q-111 0 -169 -65.5t-58 -182.5z" />
<glyph unicode="p" horiz-adv-x="1029" d="M108 -299v1169h182l12 -90q108 99 249 99q187 0 285.5 -113.5t98.5 -325.5q0 -218 -110.5 -333.5t-295.5 -115.5q-120 0 -217 62v-352h-204zM312 241q72 -48 174 -48q116 0 180 58.5t64 180.5q0 120 -62.5 183.5t-172.5 63.5q-106 0 -183 -71v-367z" />
<glyph unicode="q" horiz-adv-x="1029" d="M94 427q0 214 104 333t280 119q147 0 252 -97l18 88h174v-1174h-205v384q-108 -89 -256 -89q-81 0 -145.5 23t-115.5 73t-78.5 136t-27.5 204zM299 418q0 -234 213 -234q120 0 205 75v333q-82 82 -196 82q-101 0 -161.5 -65.5t-60.5 -190.5z" />
<glyph unicode="r" horiz-adv-x="747" d="M108 0v870h174l22 -124q97 133 239 133q99 0 147.5 -50.5t48.5 -137.5q0 -51 -9.5 -92t-19.5 -57l-10 -16h-179q17 34 17 80q0 77 -75 77q-46 0 -90 -39t-61 -91v-553h-204z" />
<glyph unicode="s" horiz-adv-x="849" d="M77 611q0 128 87.5 198t262.5 70q199 0 338 -77q-14 -102 -60 -174q-130 68 -273 68q-159 0 -159 -90q0 -30 17.5 -51t47.5 -32t69 -18t82 -13.5t85.5 -15t81.5 -25.5t69 -42t47.5 -67t17.5 -98q0 -130 -86.5 -191.5t-259.5 -61.5q-123 0 -212.5 25t-137.5 57q8 47 23 90 t26 62l11 19q132 -77 295 -77q80 0 116.5 18.5t36.5 60.5q0 28 -22.5 46t-59.5 25.5t-84 16t-96.5 15t-96.5 25.5t-84 45.5t-59.5 75.5t-22.5 116z" />
<glyph unicode="t" horiz-adv-x="665" d="M34 679v191h120q0 53 5.5 110.5t10.5 89.5l6 31h182v-231h248v-191h-248v-358q0 -71 31 -99.5t97 -28.5q38 0 72 9.5t50 18.5l15 9q4 -8 10.5 -22.5t17.5 -63t11 -101.5q-8 -6 -23.5 -14.5t-76.5 -23t-135 -14.5q-143 0 -208 63t-65 211v414h-120z" />
<glyph unicode="u" horiz-adv-x="989" d="M108 295v575h204v-495q0 -98 38 -136t119 -38q129 0 210 98v571h205v-870h-171l-22 123q-139 -132 -307 -132q-140 0 -208 69.5t-68 234.5z" />
<glyph unicode="v" horiz-adv-x="870" d="M-17 870h213q57 -180 116.5 -352.5t91.5 -255.5l31 -83q111 288 239 691h213q-62 -205 -141 -422.5t-126 -332.5l-48 -115h-273q-174 410 -316 870z" />
<glyph unicode="w" horiz-adv-x="1194" d="M-9 870h214l162 -699q68 231 145 520h171q34 -129 70.5 -259t55.5 -196l19 -65q65 261 162 699h213q-62 -250 -122 -467.5t-89 -310.5l-29 -92h-236q-65 213 -130 447l-129 -447h-234q-101 308 -243 870z" />
<glyph unicode="x" horiz-adv-x="870" d="M9 0q129 208 291 428q-165 219 -291 442h223q55 -91 105.5 -172t74.5 -116l23 -36q82 119 205 324h222q-110 -194 -290 -442q169 -229 290 -428h-227q-55 87 -105 164t-72 110l-23 33q-77 -111 -203 -307h-223z" />
<glyph unicode="y" horiz-adv-x="896" d="M9 870h235q124 -354 227 -604l208 604h234l-311 -802q-80 -204 -189 -289.5t-280 -85.5q-3 2 -7.5 6.5t-16 21t-20.5 37.5t-16.5 57t-7.5 77q103 0 173.5 25t118.5 85q-216 505 -348 868z" />
<glyph unicode="z" horiz-adv-x="807" d="M51 0v188l463 495h-463v187h697v-187l-472 -495h480v-188h-705z" />
<glyph unicode="{" horiz-adv-x="738" d="M119 367v222h48q38 0 66 21.5t28 68.5q0 39 -32.5 150.5t-32.5 185.5q0 248 273 248h185v-205h-99q-154 0 -154 -111q0 -58 32.5 -164.5t32.5 -151.5q0 -77 -40 -111t-102 -34v-15q62 0 102 -35t40 -112q0 -45 -32.5 -151t-32.5 -164q0 -111 154 -111h99v-205h-185 q-273 0 -273 247q0 74 32.5 186.5t32.5 151.5q0 47 -28 68t-66 21h-48z" />
<glyph unicode="|" horiz-adv-x="443" d="M119 -307v1715h205v-1715h-205z" />
<glyph unicode="}" horiz-adv-x="738" d="M85 -102h99q154 0 154 111q0 58 -32.5 164t-32.5 151q0 77 40 112t102 35v15q-62 0 -102 34t-40 111q0 45 32.5 151.5t32.5 164.5q0 111 -154 111h-99v205h185q273 0 273 -248q0 -74 -32.5 -185.5t-32.5 -150.5q0 -47 28 -68.5t66 -21.5h48v-222h-48q-38 0 -66 -21 t-28 -68q0 -39 32.5 -151.5t32.5 -186.5q0 -247 -273 -247h-185v205z" />
<glyph unicode="~" horiz-adv-x="1085" d="M171 375q27 127 75 183t143 56q59 0 159 -29.5t128 -29.5q40 0 65 25.5t44 90.5l130 -31q-26 -126 -72.5 -182.5t-134.5 -56.5q-66 0 -164 30t-133 30q-36 0 -62.5 -26.5t-46.5 -88.5z" />
<glyph unicode="&#xa2;" horiz-adv-x="1032" d="M119 531q0 163 89.5 274t243.5 140v175h205v-175q62 -11 113.5 -36t80 -52t43.5 -47t19 -32q-23 -46 -53.5 -84.5t-49.5 -53.5l-20 -15q-65 145 -235 145q-103 0 -167 -66.5t-64 -172.5q0 -113 64.5 -171t166.5 -58q94 0 153 39.5t82 85.5q9 -6 23.5 -16.5t47.5 -48 t52 -79.5q-17 -36 -84 -86.5t-172 -70.5v-175h-205v174q-156 25 -244.5 126.5t-88.5 279.5z" />
<glyph unicode="&#xa3;" horiz-adv-x="947" d="M85 145q5 5 12.5 13t29 35.5t39.5 56.5t36.5 73t27.5 87h-119v170h118q-12 50 -43 117.5t-53 132t-22 131.5q0 135 91 218.5t284 83.5q202 0 289 -70t87 -203q0 -42 -8.5 -79t-17.5 -53l-8 -17h-188q26 46 26 111q0 127 -180 127q-174 0 -174 -144q0 -66 50.5 -184.5 t62.5 -170.5h292v-170h-289q-8 -40 -23 -78.5t-31.5 -64.5t-31.5 -47t-25 -31l-10 -10h555v-179h-751z" />
<glyph unicode="&#xa5;" horiz-adv-x="1271" d="M60 1246h235q87 -159 172.5 -298.5t127.5 -199.5l42 -60q145 201 341 558h234q-197 -331 -374 -589h220l-17 -171h-299v-105h287l-17 -168h-270v-213h-211v213h-270l-17 168h287v105h-301l-17 171h220q-183 270 -373 589z" />
<glyph unicode="&#xa8;" horiz-adv-x="984" d="M171 1135q0 119 128 119t128 -119q0 -120 -128 -120t-128 120zM560 1135q0 119 128 119q126 0 126 -119q0 -120 -126 -120q-128 0 -128 120z" />
<glyph unicode="&#xa9;" horiz-adv-x="1672" d="M85 478q0 338 198 538.5t553 200.5q237 0 408 -92.5t257 -258t86 -388.5q0 -338 -198 -538.5t-553 -200.5t-553 200.5t-198 538.5zM256 478q0 -276 153.5 -428t426.5 -152q274 0 427.5 152t153.5 428q0 277 -153 428.5t-428 151.5q-273 0 -426.5 -151.5t-153.5 -428.5z M418 483q0 202 117.5 316t317.5 114q80 0 147 -16.5t109.5 -43.5t64.5 -46t38 -39q-12 -47 -36.5 -93t-43.5 -68l-18 -22q-26 30 -42 46.5t-48 40t-73.5 34.5t-92.5 11q-109 0 -172 -62t-63 -172q0 -112 62.5 -174t172.5 -62q67 0 123.5 21.5t83 43t58.5 55.5q7 -8 18.5 -22 t37.5 -58.5t41 -90.5q-11 -15 -27 -31t-48.5 -39t-71 -40.5t-97 -30t-123.5 -12.5q-200 0 -317.5 118t-117.5 322z" />
<glyph unicode="&#xab;" horiz-adv-x="844" d="M77 389v111l338 302l12 -179l-205 -179l205 -162l-12 -180zM418 389v111l338 302l12 -179l-205 -179l205 -162l-12 -180z" />
<glyph unicode="&#xad;" horiz-adv-x="733" d="M111 401v176h512v-176h-512z" />
<glyph unicode="&#xae;" horiz-adv-x="921" d="M60 922q0 193 105 292.5t296 99.5q192 0 296.5 -99.5t104.5 -292.5q0 -192 -104.5 -292.5t-296.5 -100.5q-191 0 -296 100.5t-105 292.5zM119 922q0 -337 342 -337q341 0 341 337q0 336 -341 336q-342 0 -342 -336zM278 683v478h200q101 0 151 -42t50 -133 q0 -98 -70 -139q62 -154 65 -164h-145q-12 48 -39 133h-80v-133h-132zM410 922h64q72 0 72 64t-72 64h-64v-128z" />
<glyph unicode="&#xb4;" horiz-adv-x="742" d="M171 990l170 290h231l-214 -290h-187z" />
<glyph unicode="&#xb8;" horiz-adv-x="653" d="M171 -109l42 174h142l-26 -108q154 0 154 -119q0 -76 -62.5 -113t-198.5 -37l-29 107q111 0 111 46q0 50 -133 50z" />
<glyph unicode="&#xbb;" horiz-adv-x="844" d="M77 282l206 162l-206 179l13 179l337 -302v-111l-337 -287zM418 282l207 162l-207 179l14 179l336 -302v-111l-336 -287z" />
<glyph unicode="&#xc1;" horiz-adv-x="1228" d="M9 0q124 353 243 664.5t176 446.5l58 135h256q23 -51 64 -148t166 -421t248 -677h-222q-65 188 -128 364h-510q-123 -344 -130 -364h-221zM432 560h365q-50 136 -96 255.5t-67 170.5l-20 52q-69 -174 -182 -478zM509 1306l162 230h244l-214 -230h-192z" />
<glyph unicode="&#xc4;" horiz-adv-x="1228" d="M9 0q124 353 243 664.5t176 446.5l58 135h256q23 -51 64 -148t166 -421t248 -677h-222q-65 188 -128 364h-510q-123 -344 -130 -364h-221zM309 1422q0 55 31 82t85 27t85 -27t31 -82q0 -54 -31 -82t-85 -28t-85 28t-31 82zM432 560h365q-50 136 -96 255.5t-67 170.5 l-20 52q-69 -174 -182 -478zM688 1422q0 55 31 82t85 27t85 -27t31 -82q0 -54 -31 -82t-85 -28t-85 28t-31 82z" />
<glyph unicode="&#xc9;" horiz-adv-x="1012" d="M111 0v1246h819v-213h-606v-330h521v-210h-521v-280h632v-213h-845zM415 1306l162 230h244l-213 -230h-193z" />
<glyph unicode="&#xcd;" horiz-adv-x="435" d="M111 0v1246h213v-1246h-213zM111 1306l162 230h244l-213 -230h-193z" />
<glyph unicode="&#xd3;" horiz-adv-x="1365" d="M68 623q0 153 45.5 273.5t128 198t194.5 118.5t247 41q181 0 318 -70t216.5 -214t79.5 -347q0 -151 -45.5 -271.5t-127.5 -199t-194 -120t-247 -41.5t-247.5 41.5t-194.5 120t-127.5 199t-45.5 271.5zM282 623q0 -205 109 -311.5t292 -106.5q184 0 292.5 106t108.5 312 q0 205 -109 312.5t-292 107.5q-182 0 -291.5 -107.5t-109.5 -312.5zM577 1306l162 230h244l-213 -230h-193z" />
<glyph unicode="&#xd4;" horiz-adv-x="1365" d="M68 623q0 153 45.5 273.5t128 198t194.5 118.5t247 41q181 0 318 -70t216.5 -214t79.5 -347q0 -151 -45.5 -271.5t-127.5 -199t-194 -120t-247 -41.5t-247.5 41.5t-194.5 120t-127.5 199t-45.5 271.5zM282 623q0 -205 109 -311.5t292 -106.5q184 0 292.5 106t108.5 312 q0 205 -109 312.5t-292 107.5q-182 0 -291.5 -107.5t-109.5 -312.5zM389 1307l193 234h205l191 -234h-183l-111 132l-111 -132h-184z" />
<glyph unicode="&#xda;" horiz-adv-x="1297" d="M102 538v708h214v-678q0 -199 80.5 -281t252.5 -82t252 82t80 281v678h214v-708q0 -152 -35.5 -258t-107 -169.5t-170 -91.5t-233.5 -28t-233.5 28t-170.5 91t-107.5 169.5t-35.5 258.5zM543 1306l162 230h244l-213 -230h-193z" />
<glyph unicode="&#xdd;" horiz-adv-x="1117" d="M-34 1246h235q80 -159 169.5 -313t139.5 -228l50 -74q179 258 358 615h234q-108 -195 -229 -395.5t-189 -303.5l-67 -103v-444h-215v444q-242 364 -486 802zM452 1306l162 230h244l-213 -230h-193z" />
<glyph unicode="&#xe1;" horiz-adv-x="930" d="M90 213q0 239 299 236h231v85q0 86 -37.5 126t-130.5 40q-153 0 -153 -106q0 -17 3.5 -32t6.5 -22l3 -6h-193q-17 38 -17 94q0 114 87.5 182.5t262.5 68.5q203 0 287.5 -78t84.5 -246v-555h-187l-11 99q-123 -108 -297 -108q-111 0 -175 56.5t-64 165.5zM282 230 q0 -82 102 -82q134 0 236 79v94h-219q-119 0 -119 -91zM341 990l171 290h230l-213 -290h-188z" />
<glyph unicode="&#xe4;" horiz-adv-x="930" d="M90 213q0 239 299 236h231v85q0 86 -37.5 126t-130.5 40q-153 0 -153 -106q0 -17 3.5 -32t6.5 -22l3 -6h-193q-17 38 -17 94q0 114 87.5 182.5t262.5 68.5q203 0 287.5 -78t84.5 -246v-555h-187l-11 99q-123 -108 -297 -108q-111 0 -175 56.5t-64 165.5zM135 1135 q0 119 128 119t128 -119q0 -120 -128 -120t-128 120zM282 230q0 -82 102 -82q134 0 236 79v94h-219q-119 0 -119 -91zM524 1135q0 119 128 119t128 -119q0 -120 -128 -120t-128 120z" />
<glyph unicode="&#xe9;" horiz-adv-x="981" d="M94 440q0 211 112.5 325t310.5 114q100 0 172.5 -26t112.5 -73t58.5 -103.5t18.5 -125.5q0 -44 -5.5 -81.5t-10.5 -53.5l-5 -15h-566q9 -122 74 -177t185 -55q50 0 96 9.5t75.5 22.5t51.5 26t32 23l10 9q42 -58 71 -169q-4 -4 -13 -10.5t-41 -24t-69 -30.5t-98 -23.5 t-128 -10.5q-216 0 -330 111.5t-114 337.5zM297 534h389l2 17q0 79 -38.5 121.5t-137.5 42.5q-183 0 -215 -181zM401 990l171 290h230l-213 -290h-188z" />
<glyph unicode="&#xed;" horiz-adv-x="418" d="M94 990l171 290h230l-213 -290h-188zM108 0v870h204v-870h-204z" />
<glyph unicode="&#xf3;" d="M94 435q0 217 114.5 330.5t317.5 113.5t316.5 -113.5t113.5 -330.5t-114 -330.5t-316 -113.5q-203 0 -317.5 113.5t-114.5 330.5zM299 435q0 -119 58 -183t169 -64q110 0 167.5 64t57.5 183q0 117 -58 182.5t-167 65.5q-111 0 -169 -65.5t-58 -182.5zM410 990l170 290 h231l-214 -290h-187z" />
<glyph unicode="&#xf4;" d="M94 435q0 217 114.5 330.5t317.5 113.5t316.5 -113.5t113.5 -330.5t-114 -330.5t-316 -113.5q-203 0 -317.5 113.5t-114.5 330.5zM239 990l176 273h222l174 -273h-180l-105 142l-108 -142h-179zM299 435q0 -119 58 -183t169 -64q110 0 167.5 64t57.5 183q0 117 -58 182.5 t-167 65.5q-111 0 -169 -65.5t-58 -182.5z" />
<glyph unicode="&#xfa;" horiz-adv-x="989" d="M108 295v575h204v-495q0 -98 38 -136t119 -38q129 0 210 98v571h205v-870h-171l-22 123q-139 -132 -307 -132q-140 0 -208 69.5t-68 234.5zM389 990l171 290h230l-213 -290h-188z" />
<glyph unicode="&#xfd;" horiz-adv-x="896" d="M9 870h235q124 -354 227 -604l208 604h234l-311 -802q-80 -204 -189 -289.5t-280 -85.5q-3 2 -7.5 6.5t-16 21t-20.5 37.5t-16.5 57t-7.5 77q103 0 173.5 25t118.5 85q-216 505 -348 868zM352 990l170 290h231l-214 -290h-187z" />
<glyph unicode="&#x10c;" horiz-adv-x="1245" d="M68 623q0 198 83 342.5t224.5 216.5t324.5 72q354 0 503 -216q-19 -53 -49 -100t-50 -68l-20 -20q-28 40 -54.5 68t-72 60.5t-110.5 50t-147 17.5q-87 0 -162.5 -27.5t-132.5 -79.5t-90 -133t-33 -183q0 -109 32 -191.5t89.5 -132t132 -74t164.5 -24.5q275 0 401 197 q8 -7 21.5 -20t45.5 -58.5t52 -97.5q-15 -24 -35 -47.5t-64.5 -59t-97.5 -61t-137 -44.5t-181 -19q-140 0 -256.5 41t-201.5 119.5t-132 199t-47 272.5zM406 1541h185l110 -133l111 133h183l-191 -235h-205z" />
<glyph unicode="&#x10d;" horiz-adv-x="918" d="M94 435q0 215 113.5 329.5t318.5 114.5q66 0 123.5 -11t93 -26.5t62 -31t37.5 -26.5l11 -11q-2 -13 -7 -34t-25.5 -71.5t-47.5 -82.5q-3 4 -10 10t-30 22.5t-49.5 29t-68 22.5t-86.5 10q-112 0 -171 -61.5t-59 -182.5q0 -129 63 -186.5t184 -57.5q71 0 130.5 21.5 t83.5 42.5l25 21q51 -73 82 -175l-11.5 -11.5t-37 -26.5t-65 -33.5t-96 -26.5t-128.5 -12q-206 0 -320.5 111.5t-114.5 332.5zM227 1263h179l108 -140l106 140h179l-174 -273h-222z" />
<glyph unicode="&#x10e;" horiz-adv-x="1245" d="M111 0v1246h375q339 0 515.5 -154t176.5 -469t-176.5 -469t-515.5 -154h-375zM171 1541h184l111 -133l111 133h182l-191 -235h-204zM324 213h197q220 0 330 100.5t110 309.5t-110 309.5t-330 100.5h-197v-820z" />
<glyph unicode="&#x10f;" horiz-adv-x="1182" d="M94 432q0 217 105 332t270 115q148 0 248 -72v439h205v-1246h-180l-13 113q-108 -122 -280 -122q-167 0 -261 107.5t-94 333.5zM299 423q0 -239 204 -239q131 0 214 87v331q-79 72 -200 72q-218 0 -218 -251zM964 1143q0 59 32.5 89.5t83.5 30.5q66 0 101.5 -44.5 t35.5 -126.5q0 -106 -60.5 -181t-141.5 -104l-37 69q63 27 106.5 77.5t47.5 109.5q-30 -30 -74 -30q-37 0 -65.5 28.5t-28.5 81.5z" />
<glyph unicode="&#x139;" horiz-adv-x="904" d="M111 0v1246h213v-1033h572v-213h-785zM111 1306l162 230h244l-213 -230h-193z" />
<glyph unicode="&#x13a;" horiz-adv-x="486" d="M102 1306l163 230h244l-214 -230h-193zM108 184v1062h204v-993q0 -35 15 -50t48 -15q21 0 41.5 4t30.5 8l10 5q21 -69 21 -183q-51 -31 -179 -31q-99 0 -145 43.5t-46 149.5z" />
<glyph unicode="&#x13d;" horiz-adv-x="904" d="M111 0v1246h213v-1033h572v-213h-785zM614 1143q0 59 32.5 89.5t83.5 30.5q66 0 101.5 -44.5t35.5 -126.5q0 -107 -60 -181.5t-141 -103.5l-38 69q63 27 106.5 77.5t47.5 109.5q-30 -30 -74 -30q-37 0 -65.5 28.5t-28.5 81.5z" />
<glyph unicode="&#x13e;" horiz-adv-x="593" d="M108 184v1062h204v-993q0 -35 15 -50t48 -15q21 0 41.5 4t30.5 8l10 5q21 -69 21 -183q-51 -31 -179 -31q-99 0 -145 43.5t-46 149.5zM375 1143q0 59 32.5 89.5t84.5 30.5q66 0 101 -44.5t35 -126.5q0 -107 -60 -181.5t-141 -103.5l-38 69q63 27 106.5 77.5t47.5 109.5 q-30 -30 -74 -30q-37 0 -65.5 28.5t-28.5 81.5z" />
<glyph unicode="&#x147;" horiz-adv-x="1314" d="M111 0v1246h171l708 -865v865h213v-1246h-170l-709 867v-867h-213zM364 1541h184l111 -133l111 133h182l-191 -235h-205z" />
<glyph unicode="&#x148;" horiz-adv-x="1006" d="M108 0v870h157l34 -134q111 143 286 143q151 0 233.5 -85.5t82.5 -247.5v-546h-205v452q0 111 -42 166.5t-137 55.5q-67 0 -123 -42t-82 -100v-532h-204zM227 1263h179l108 -140l106 140h179l-174 -273h-222z" />
<glyph unicode="&#x154;" horiz-adv-x="1186" d="M111 0v1246h469q243 0 369 -102t126 -325q0 -263 -189 -363q128 -224 240 -456h-247q-81 190 -195 398q-53 -5 -104 -5h-256v-393h-213zM324 606h290q122 0 185 54t63 159q0 111 -62 162.5t-186 51.5h-290v-427zM432 1306l162 230h244l-213 -230h-193z" />
<glyph unicode="&#x155;" horiz-adv-x="747" d="M108 0v870h174l22 -124q97 133 239 133q99 0 147.5 -50.5t48.5 -137.5q0 -51 -9.5 -92t-19.5 -57l-10 -16h-179q17 34 17 80q0 77 -75 77q-46 0 -90 -39t-61 -91v-553h-204zM278 990l171 290h230l-213 -290h-188z" />
<glyph unicode="&#x160;" horiz-adv-x="1114" d="M68 350q77 34 205 51q7 -121 78 -175t221 -54q143 0 206 41.5t63 127.5q0 45 -26 77t-69.5 50.5t-100.5 32t-119.5 26t-125 27.5t-119.5 41.5t-100.5 63.5t-69.5 97.5t-26 139.5q0 167 117.5 262.5t365.5 95.5q127 0 219 -24t143.5 -67t75 -95t23.5 -116 q0 -45 -6.5 -80.5t-13.5 -47.5l-7 -13h-208q22 30 22 90q0 167 -253 167q-268 0 -268 -175q0 -56 32.5 -94.5t85 -57.5t120 -35.5t138 -28t138 -35.5t120 -56.5t85 -93t32.5 -142.5q0 -359 -486 -359q-104 0 -186 17.5t-137 48.5t-92 77t-55 98.5t-22 117.5zM278 1541h185 l110 -133l111 133h183l-191 -235h-205z" />
<glyph unicode="&#x161;" horiz-adv-x="849" d="M77 611q0 128 87.5 198t262.5 70q199 0 338 -77q-14 -102 -60 -174q-130 68 -273 68q-159 0 -159 -90q0 -30 17.5 -51t47.5 -32t69 -18t82 -13.5t85.5 -15t81.5 -25.5t69 -42t47.5 -67t17.5 -98q0 -130 -86.5 -191.5t-259.5 -61.5q-123 0 -212.5 25t-137.5 57q8 47 23 90 t26 62l11 19q132 -77 295 -77q80 0 116.5 18.5t36.5 60.5q0 28 -22.5 46t-59.5 25.5t-84 16t-96.5 15t-96.5 25.5t-84 45.5t-59.5 75.5t-22.5 116zM137 1263h179l107 -140l106 140h179l-174 -273h-222z" />
<glyph unicode="&#x164;" horiz-adv-x="1032" d="M5 1033v213h1016v-213h-401v-1033h-214v1033h-401zM217 1541h184l111 -133l111 133h183l-192 -235h-204z" />
<glyph unicode="&#x165;" horiz-adv-x="853" d="M34 679v191h120q0 53 5.5 110.5t10.5 89.5l6 31h182v-231h248v-191h-248v-358q0 -71 31 -99.5t97 -28.5q38 0 72 9.5t50 18.5l15 9q4 -8 10.5 -22.5t17.5 -63t11 -101.5q-8 -6 -23.5 -14.5t-76.5 -23t-135 -14.5q-143 0 -208 63t-65 211v414h-120zM635 1143 q0 59 32.5 89.5t83.5 30.5q66 0 101 -44.5t35 -126.5q0 -107 -60 -181.5t-141 -103.5l-37 69q63 27 106 77.5t47 109.5q-30 -30 -73 -30q-37 0 -65.5 28.5t-28.5 81.5z" />
<glyph unicode="&#x17d;" horiz-adv-x="1029" d="M22 188l703 845h-699v213h972l6 -196l-702 -837h705v-213h-976zM222 1541h184l111 -133l111 133h183l-191 -235h-205z" />
<glyph unicode="&#x17e;" horiz-adv-x="807" d="M51 0v188l463 495h-463v187h697v-187l-472 -495h480v-188h-705zM113 1263h179l107 -140l106 140h179l-174 -273h-222z" />
<glyph unicode="&#x2c6;" horiz-adv-x="913" d="M171 990l175 273h222l174 -273h-179l-106 142l-107 -142h-179z" />
<glyph unicode="&#x2da;" horiz-adv-x="682" d="M171 1118q0 80 45 123.5t125 43.5q81 0 126 -43t45 -124q0 -79 -45 -122.5t-126 -43.5q-80 0 -125 43.5t-45 122.5zM283 1118q0 -27 15.5 -42.5t42.5 -15.5t42.5 15.5t15.5 42.5t-15.5 42.5t-42.5 15.5t-42.5 -15.5t-15.5 -42.5z" />
<glyph unicode="&#x2dc;" horiz-adv-x="955" d="M171 1029q0 123 39.5 181t127.5 58q52 0 144 -30t120 -30q36 0 52.5 24t16.5 82l114 -20q0 -123 -37.5 -181t-119.5 -58q-58 0 -148 29.5t-125 29.5q-68 0 -68 -107z" />
<glyph unicode="&#x2000;" horiz-adv-x="770" />
<glyph unicode="&#x2001;" horiz-adv-x="1541" />
<glyph unicode="&#x2002;" horiz-adv-x="770" />
<glyph unicode="&#x2003;" horiz-adv-x="1541" />
<glyph unicode="&#x2004;" horiz-adv-x="513" />
<glyph unicode="&#x2005;" horiz-adv-x="385" />
<glyph unicode="&#x2006;" horiz-adv-x="256" />
<glyph unicode="&#x2007;" horiz-adv-x="256" />
<glyph unicode="&#x2008;" horiz-adv-x="192" />
<glyph unicode="&#x2009;" horiz-adv-x="308" />
<glyph unicode="&#x200a;" horiz-adv-x="85" />
<glyph unicode="&#x2010;" horiz-adv-x="733" d="M111 401v176h512v-176h-512z" />
<glyph unicode="&#x2011;" horiz-adv-x="733" d="M111 401v176h512v-176h-512z" />
<glyph unicode="&#x2012;" horiz-adv-x="733" d="M111 401v176h512v-176h-512z" />
<glyph unicode="&#x2013;" horiz-adv-x="1020" d="M111 398v174h799v-174h-799z" />
<glyph unicode="&#x2014;" horiz-adv-x="1553" d="M111 398v174h1331v-174h-1331z" />
<glyph unicode="&#x2018;" horiz-adv-x="372" d="M60 1084q0 107 60 182t141 104l38 -68q-62 -27 -106 -78.5t-48 -109.5q34 29 73 29q37 0 65.5 -28.5t28.5 -81.5q0 -58 -32.5 -89t-83.5 -31q-66 0 -101 45t-35 126z" />
<glyph unicode="&#x2019;" horiz-adv-x="372" d="M60 1143q0 59 32.5 89.5t83.5 30.5q66 0 101 -44.5t35 -126.5q0 -107 -60 -181.5t-141 -103.5l-38 69q63 27 106.5 77.5t47.5 109.5q-30 -30 -73 -30q-37 0 -65.5 28.5t-28.5 81.5z" />
<glyph unicode="&#x201a;" horiz-adv-x="372" d="M60 102q0 59 32.5 89.5t83.5 30.5q66 0 101 -44.5t35 -126.5q0 -107 -60.5 -182.5t-140.5 -104.5l-38 69q63 27 106.5 78.5t47.5 110.5q-31 -31 -73 -31q-36 0 -65 28.5t-29 82.5z" />
<glyph unicode="&#x201c;" horiz-adv-x="704" d="M60 1101q0 107 60.5 182.5t140.5 104.5l38 -69q-63 -27 -106.5 -78t-47.5 -109q34 29 73 29q36 0 65 -28.5t29 -82.5q0 -58 -32.5 -89t-83.5 -31q-66 0 -101 45t-35 126zM393 1101q0 107 60.5 182.5t140.5 104.5l37 -69q-62 -26 -105.5 -77.5t-47.5 -109.5q34 29 73 29 q37 0 65.5 -28.5t28.5 -82.5q0 -58 -32.5 -89t-83.5 -31q-66 0 -101 45t-35 126z" />
<glyph unicode="&#x201d;" horiz-adv-x="704" d="M60 1143q0 59 32.5 89.5t83.5 30.5q66 0 101 -44.5t35 -126.5q0 -107 -60 -181.5t-141 -103.5l-38 69q63 27 106.5 77.5t47.5 109.5q-30 -30 -73 -30q-37 0 -65.5 28.5t-28.5 81.5zM393 1143q0 59 32.5 89.5t83.5 30.5q66 0 101 -44.5t35 -126.5q0 -107 -60 -181.5 t-141 -103.5l-38 69q63 27 106.5 77.5t47.5 109.5q-30 -30 -74 -30q-36 0 -64.5 28.5t-28.5 81.5z" />
<glyph unicode="&#x201e;" horiz-adv-x="704" d="M60 102q0 59 32.5 89.5t83.5 30.5q66 0 101 -44.5t35 -126.5q0 -107 -60.5 -182.5t-140.5 -104.5l-38 69q63 27 106.5 78.5t47.5 110.5q-31 -31 -73 -31q-36 0 -65 28.5t-29 82.5zM393 102q0 59 32.5 89.5t83.5 30.5q66 0 101 -44.5t35 -126.5q0 -107 -60.5 -182.5 t-140.5 -104.5l-38 69q63 27 106.5 78.5t47.5 110.5q-31 -31 -74 -31q-36 0 -64.5 28.5t-28.5 82.5z" />
<glyph unicode="&#x2026;" horiz-adv-x="1194" d="M60 111q0 59 32.5 89t86.5 30t87 -30t33 -89q0 -58 -33.5 -89t-86.5 -31t-86 31t-33 89zM478 111q0 59 32.5 89t86.5 30t87 -30t33 -89q0 -58 -33.5 -89t-86.5 -31t-86 31t-33 89zM896 111q0 59 32.5 89t86.5 30t87 -30t33 -89q0 -58 -33.5 -89t-86.5 -31t-86 31t-33 89z " />
<glyph unicode="&#x202f;" horiz-adv-x="308" />
<glyph unicode="&#x2039;" horiz-adv-x="503" d="M77 389v111l338 302l12 -179l-205 -179l205 -162l-12 -180z" />
<glyph unicode="&#x203a;" horiz-adv-x="503" d="M77 282l206 162l-206 179l13 179l337 -302v-111l-337 -287z" />
<glyph unicode="&#x205f;" horiz-adv-x="385" />
<glyph unicode="&#x20ac;" horiz-adv-x="1361" d="M26 418v133h148q-3 36 -3 72l1 51h-146v133h163q47 209 198 324t369 115q327 0 469 -200q-19 -52 -49 -98t-50 -66l-20 -20q-28 39 -51.5 64.5t-64.5 54t-99.5 43t-134.5 14.5q-121 0 -210.5 -60t-130.5 -171h455v-133h-484q-2 -17 -2 -51q0 -39 3 -72h483v-133h-452 q41 -105 128.5 -156.5t209.5 -51.5q145 0 228.5 46.5t138.5 124.5q8 -7 21 -20t45 -58.5t53 -97.5q-15 -23 -34 -45t-60 -53t-90.5 -53t-128 -38t-170.5 -16q-218 0 -366 107.5t-198 310.5h-169z" />
<glyph unicode="&#x2122;" horiz-adv-x="1664" d="M77 1089v157h631v-157h-230v-483h-171v483h-230zM759 606v640h159l256 -307l256 307h157v-640h-170v418l-236 -290h-15l-236 292v-420h-171z" />
<glyph unicode="&#x25fc;" horiz-adv-x="870" d="M0 0v870h870v-870h-870z" />
</font>
</defs>
</svg>
